<svg width="1071" height="872" viewBox="0 0 1071 872" fill="none" xmlns="http://www.w3.org/2000/svg">
<path d="M-13.6245 -88.497C11.3187 -27.9301 69.0566 108.451 138.438 247.004C192.805 355.553 243.565 444.162 289.297 510.34C310.29 540.716 330.196 566.337 348.96 587.13C353.739 592.43 358.44 597.416 363.07 602.084C367.909 606.974 372.68 611.518 377.362 615.717C382.261 620.12 387.061 624.132 391.768 627.77C396.727 631.6 401.576 635.001 406.322 637.981C411.354 641.15 416.275 643.839 421.062 646.043C425.551 648.12 429.93 649.775 434.205 651.003C434.803 651.172 435.394 651.338 435.992 651.5L466.32 659.484C465.723 659.316 465.124 659.154 464.534 658.987C460.285 657.76 455.946 656.13 451.49 654.069L451.484 654.068C446.683 651.86 441.762 649.178 436.729 646.009C431.983 643.035 427.127 639.633 422.175 635.805C417.468 632.174 412.661 628.16 407.775 623.768C403.085 619.574 398.321 615.032 393.468 610.138C388.819 605.45 384.092 600.442 379.295 595.116C374.685 590.014 370.011 584.616 365.27 578.929C350.696 561.457 335.47 541.25 319.632 518.327C273.887 452.144 223.127 363.536 168.774 254.983C99.6335 116.932 42.0697 -18.9667 16.9742 -79.8607L-13.6245 -88.497Z" fill="white" fill-opacity="0.23"/>
<path d="M-75.7949 -105.598C-51.1507 -45.6992 6.9094 91.635 76.795 231.163C131.15 339.702 181.905 428.291 227.638 494.469C259.601 540.725 289.059 575.945 315.758 599.892C320.631 604.266 325.411 608.258 330.092 611.873C335.05 615.696 339.898 619.103 344.65 622.093C349.682 625.261 354.595 627.948 359.389 630.146C363.87 632.221 368.248 633.876 372.523 635.111C373.12 635.28 373.712 635.439 374.31 635.601C379.278 636.911 384.462 637.764 389.867 638.174C385.08 635.97 380.168 633.283 375.129 630.113C370.39 627.135 365.536 623.725 360.584 619.898C355.878 616.268 351.065 612.245 346.166 607.85C341.511 603.673 336.773 599.153 331.952 594.29C309.14 571.283 284.484 540.637 258.124 502.491C212.384 436.311 161.629 347.722 107.267 239.182C37.6436 100.154 -20.2502 -36.6857 -45.046 -96.9182L-75.7949 -105.598Z" fill="white" fill-opacity="0.23"/>
<path d="M-137.873 -122.847C-113.54 -63.6538 -55.1363 74.6831 15.262 215.268C69.6281 323.823 120.387 412.431 166.125 478.611C210.116 542.265 249.361 585.032 283.208 606.288L283.215 606.29C288.229 609.432 293.109 612.102 297.877 614.3C302.372 616.379 306.751 618.034 311.026 619.262C311.616 619.436 312.214 619.605 312.813 619.76L342.401 627.542C342.106 627.459 341.811 627.376 341.509 627.283C337.24 626.057 332.861 624.409 328.386 622.336L328.379 622.334C323.585 620.128 318.659 617.43 313.619 614.267C308.893 611.292 304.07 607.913 299.136 604.111C268.748 580.663 234.435 541.376 196.608 486.638C150.864 420.45 100.104 331.849 45.7444 223.296C-24.387 83.234 -82.6247 -54.6084 -107.113 -114.165L-137.873 -122.847Z" fill="white" fill-opacity="0.23"/>
<path d="M-199.885 -139.907C-175.891 -81.4856 -117.149 57.859 -46.2225 199.47C8.13212 308.008 58.8871 396.596 104.627 462.776C161.239 544.705 209.992 592.021 249.518 603.412C250.101 603.584 250.706 603.747 251.298 603.9C256.233 605.201 261.39 606.053 266.773 606.471C229.749 589.427 185.488 543.877 134.958 470.755C89.2183 404.575 38.4634 315.987 -15.8985 207.454C-86.5577 66.3659 -145.135 -72.4703 -169.291 -131.271L-199.885 -139.907Z" fill="white" fill-opacity="0.23"/>
<path d="M456.628 652.493C461.083 654.553 465.421 656.183 469.668 657.41C470.259 657.577 470.857 657.739 471.455 657.908C510.805 668.257 564.091 650.376 629.903 604.705C683.869 567.258 746.106 511.235 814.889 438.183C905.727 341.708 984.283 240.43 1015.53 199.048L985.567 190.588C954.561 231.662 875.745 333.35 784.562 430.196C715.785 503.251 653.542 559.271 599.582 596.721C542.044 636.656 494.069 655.347 456.628 652.493Z" fill="#F32012" fill-opacity="0.23"/>
<path d="M426.937 634.312C431.887 638.138 436.74 641.54 441.484 644.514C476.309 641.974 518.913 623.334 568.677 588.802C622.628 551.368 684.852 495.368 753.614 422.333C845.114 325.149 924.158 223.084 954.902 182.33L924.796 173.829C894.318 214.254 815.007 316.74 723.14 414.311C654.378 487.338 592.16 543.348 538.209 580.781C495.787 610.212 458.569 628.1 426.937 634.312Z" fill="#F32012" fill-opacity="0.23"/>
<path d="M397.829 608.796C402.678 613.688 407.439 618.228 412.126 622.42C440.07 614.028 471.874 597.495 507.296 572.909C561.234 535.493 623.444 479.494 692.182 406.491C784.394 308.561 863.946 205.67 894.148 165.592L864.041 157.09C834.12 196.828 754.3 300.147 661.726 398.473C592.982 471.474 530.772 527.466 476.834 564.889C448.063 584.842 421.694 599.501 397.829 608.796Z" fill="#F32012" fill-opacity="0.23"/>
<path d="M369.211 577.788C373.948 583.471 378.619 588.866 383.225 593.965C402.644 584.881 423.557 572.576 445.923 557.054C499.85 519.647 562.041 463.665 630.773 390.666C723.709 291.973 803.781 188.24 833.42 148.872L803.465 140.412C774.122 179.424 693.775 283.597 600.464 382.689C531.739 455.682 469.541 511.662 415.613 549.076C399.38 560.345 383.909 569.913 369.211 577.788Z" fill="#F32012" fill-opacity="0.23"/>
</svg>
